<?xml version="1.0" encoding="UTF-8" standalone="no"?>
<!-- Created with Inkscape (http://www.inkscape.org/) -->

<svg
   xmlns:dc="http://purl.org/dc/elements/1.1/"
   xmlns:cc="http://creativecommons.org/ns#"
   xmlns:rdf="http://www.w3.org/1999/02/22-rdf-syntax-ns#"
   xmlns:svg="http://www.w3.org/2000/svg"
   xmlns="http://www.w3.org/2000/svg"
   xmlns:sodipodi="http://sodipodi.sourceforge.net/DTD/sodipodi-0.dtd"
   xmlns:inkscape="http://www.inkscape.org/namespaces/inkscape"
   width="210mm"
   height="297mm"
   viewBox="0 0 210 297"
   version="1.1"
   id="svg8"
   inkscape:version="0.92.2 (5c3e80d, 2017-08-06)"
   sodipodi:docname="icon.svg">
  <defs
     id="defs2" />
  <sodipodi:namedview
     id="base"
     pagecolor="#ffffff"
     bordercolor="#666666"
     borderopacity="1.0"
     inkscape:pageopacity="0.0"
     inkscape:pageshadow="2"
     inkscape:zoom="0.7"
     inkscape:cx="-741.07981"
     inkscape:cy="783.80033"
     inkscape:document-units="mm"
     inkscape:current-layer="layer1"
     showgrid="false"
     inkscape:window-width="1920"
     inkscape:window-height="1017"
     inkscape:window-x="3592"
     inkscape:window-y="-8"
     inkscape:window-maximized="1" />
  <metadata
     id="metadata5">
    <rdf:RDF>
      <cc:Work
         rdf:about="">
        <dc:format>image/svg+xml</dc:format>
        <dc:type
           rdf:resource="http://purl.org/dc/dcmitype/StillImage" />
        <dc:title></dc:title>
      </cc:Work>
    </rdf:RDF>
  </metadata>
  <g
     inkscape:label="Ebene 1"
     inkscape:groupmode="layer"
     id="layer1">
    <circle
       style="opacity:1;fill:#000080;fill-opacity:1;stroke:none;stroke-width:1;stroke-miterlimit:4;stroke-dasharray:none"
       id="path4504-8"
       cx="-278.94644"
       cy="42.244045"
       r="123.9762" />
    <g
       transform="matrix(1.1554053,0,0,1.1554053,44.2665,-23.874937)"
       id="g4580"
       style="fill:#000000">
      <path
         inkscape:connector-curvature="0"
         style="opacity:1;fill:#000000;fill-opacity:1;stroke:none;stroke-width:3.77952766;stroke-miterlimit:4;stroke-dasharray:none"
         d="m -1054.2852,86.357422 a 211.42857,211.42857 0 0 0 -211.4296,211.427738 211.42857,211.42857 0 0 0 211.4296,211.42968 211.42857,211.42857 0 0 0 211.42778,-211.42968 211.42857,211.42857 0 0 0 -211.42778,-211.427738 z m 0,123.130858 a 54.285711,54.285711 0 0 1 54.2852,54.28711 54.285711,54.285711 0 0 1 -40,52.35938 v 69.94726 h -28.5723 v -69.99805 a 54.285711,54.285711 0 0 1 -40,-52.30859 54.285711,54.285711 0 0 1 54.2871,-54.28711 z"
         transform="scale(0.26458333)"
         id="path4576" />
      <path
         style="opacity:1;fill:#000000;fill-opacity:1;stroke:none;stroke-width:1.03626788;stroke-miterlimit:4;stroke-dasharray:none"
         d="m -278.68389,-16.207929 a 51.779866,58.264755 0 0 0 -51.77958,58.264658 51.779866,58.264755 0 0 0 0.12443,2.672705 h 3.70096 a 48.327882,54.380444 0 0 1 47.95419,-47.9660576 48.327882,54.380444 0 0 1 47.92989,47.9660576 h 3.73766 a 51.779866,58.264755 0 0 0 0.11252,-2.672705 51.779866,58.264755 0 0 0 -51.78007,-58.264658 z"
         id="path4578"
         inkscape:connector-curvature="0" />
    </g>
    <g
       id="g4574"
       transform="matrix(1.1554053,0,0,1.1554053,42.593823,-25.462438)">
      <path
         id="path4521"
         transform="scale(0.26458333)"
         d="m -1054.2852,86.357422 a 211.42857,211.42857 0 0 0 -211.4296,211.427738 211.42857,211.42857 0 0 0 211.4296,211.42968 211.42857,211.42857 0 0 0 211.42778,-211.42968 211.42857,211.42857 0 0 0 -211.42778,-211.427738 z m 0,123.130858 a 54.285711,54.285711 0 0 1 54.2852,54.28711 54.285711,54.285711 0 0 1 -40,52.35938 v 69.94726 h -28.5723 v -69.99805 a 54.285711,54.285711 0 0 1 -40,-52.30859 54.285711,54.285711 0 0 1 54.2871,-54.28711 z"
         style="opacity:1;fill:#ffffff;fill-opacity:1;stroke:none;stroke-width:3.77952766;stroke-miterlimit:4;stroke-dasharray:none"
         inkscape:connector-curvature="0" />
      <path
         inkscape:connector-curvature="0"
         id="path4550"
         d="m -278.68389,-16.207929 a 51.779866,58.264755 0 0 0 -51.77958,58.264658 51.779866,58.264755 0 0 0 0.12443,2.672705 h 3.70096 a 48.327882,54.380444 0 0 1 47.95419,-47.9660576 48.327882,54.380444 0 0 1 47.92989,47.9660576 h 3.73766 a 51.779866,58.264755 0 0 0 0.11252,-2.672705 51.779866,58.264755 0 0 0 -51.78007,-58.264658 z"
         style="opacity:1;fill:#ffffff;fill-opacity:1;stroke:none;stroke-width:1.03626788;stroke-miterlimit:4;stroke-dasharray:none" />
    </g>
  </g>
</svg>
